{"title":"Rugby.Union.Scarlets.v.Edinburgh.2013.03.01.pdtv.x264","uid":8215815,"size":1613920435,"categoryP":"video","categoryS":"tv_shows","magnet":"?xt=urn:btih:3bb848f92a0c287b00b9036afc679ae974af01db&amp;dn=Rugby.Union.Scarlets.v.Edinburgh.2013.03.01.pdtv.x264&amp;tr=udp%3A%2F%2Ftracker.openbittorrent.com%3A80&amp;tr=udp%3A%2F%2Fopen.demonii.com%3A1337&amp;tr=udp%3A%2F%2Ftracker.coppersurfer.tk%3A6969&amp;tr=udp%3A%2F%2Fexodus.desync.com%3A6969","seeders":0,"leechers":0,"uploader":"rugbybill","files":4,"time":1362336440,"description":"SPORT: Scrum V Live - Scarlets v Edinburgh\nOn: BBC 2 Wales\nDate: Friday 1st March 2013 \nTime: 19:00 to 21:00 \n\nThe Scarlets welcome Edinburgh to Parc y Scarlets for this Pro 12 clash. Simon Easterby's team must win if they want to keep their play-off dreams alive. Jonathan Davies is in commentary with Gareth Charles. Shane Williams joins Ross Harries in studio. Check out the ReadMe file for more details.\n\n\nGeneral\nComplete name: 013.03.01.Scarlets.v.Edinburgh.pdtv.x264.mp4\nFormat: MPEG-4\nFormat profile: Base Media\nCodec ID: isom\nFile size: 1.50 GiB\nDuration: 1h 59mn\nOverall bit rate mode: Variable\nOverall bit rate: 1 799 Kbps\n\nVideo\nID: 1\nFormat: AVC\nFormat/Info: Advanced Video Codec\nFormat profile: &lt;a class=&quot;__cf_email__&quot; href=&quot;/cdn-cgi/l/email-protection&quot; data-cfemail=&quot;125a7b757a525e213c23&quot;&gt;[email&amp;#160;protected]&lt;/a&gt;&lt;script cf-hash='f9e31' type=&quot;text/javascript&quot;&gt;\n/* &lt;![CDATA[ */!function(){try{var t=&quot;currentScript&quot;in document?document.currentScript:function(){for(var t=document.getElementsByTagName(&quot;script&quot;),e=t.length;e--;)if(t[e].getAttribute(&quot;cf-hash&quot;))return t[e]}();if(t&amp;&amp;t.previousSibling){var e,r,n,i,c=t.previousSibling,a=c.getAttribute(&quot;data-cfemail&quot;);if(a){for(e=&quot;&quot;,r=parseInt(a.substr(0,2),16),n=2;a.length-n;n+=2)i=parseInt(a.substr(n,2),16)^r,e+=String.fromCharCode(i);e=document.createTextNode(e),c.parentNode.replaceChild(e,c)}}}catch(u){}}();/* ]]&gt; */&lt;/script&gt;\nFormat settings, CABAC: Yes\nFormat settings, ReFrames: 15 frames\nCodec ID: avc1\nCodec ID/Info: Advanced Video Coding\nDuration: 1h 59mn\nBit rate: 1 667 Kbps\nMaximum bit rate: 5 141 Kbps\nWidth: 720 pixels\nHeight: 416 pixels\nDisplay aspect ratio: 1.731\nFrame rate mode: Constant\nFrame rate: 25.000 fps\nColor space: YUV\nChroma subsampling: 4:2:0\nBit depth: 8 bits\nScan type: Progressive\nBits/(Pixel*Frame): 0.223\nStream size: 1.39 GiB (93%)\nWriting library: x264 core 129 r2245 bc13772\n\nAudio\nID: 2\nFormat: AAC\nFormat/Info: Advanced Audio Codec\nFormat profile: LC\nCodec ID: 40\nDuration: 1h 59mn\nBit rate mode: Variable\nBit rate: 128 Kbps\nMaximum bit rate: 146 Kbps\nChannel(s): 2 channels\nChannel positions: Front: L R\nSampling rate: 48.0 KHz\nCompression mode: Lossy\nDelay relative to video: 80ms\nStream size: 109 MiB (7%)\nLanguage: English\n\n","torrent":{"xt":"urn:btih:3bb848f92a0c287b00b9036afc679ae974af01db","amp;dn":"Rugby.Union.Scarlets.v.Edinburgh.2013.03.01.pdtv.x264","amp;tr":["udp%3A%2F%2Ftracker.openbittorrent.com%3A80","udp%3A%2F%2Fopen.demonii.com%3A1337","udp%3A%2F%2Ftracker.coppersurfer.tk%3A6969","udp%3A%2F%2Fexodus.desync.com%3A6969"],"infoHash":"3bb848f92a0c287b00b9036afc679ae974af01db","infoHashBuffer":{"type":"Buffer","data":[59,184,72,249,42,12,40,123,0,185,3,106,252,103,154,233,116,175,1,219]},"announce":[],"urlList":[]}}